<svg xmlns="http://www.w3.org/2000/svg" viewBox="0 0 1080 1080"><defs><style>.cls-1{fill:#091e04;}.cls-2{fill:#64cee9;}.cls-3{fill:#30865e;}.cls-4{fill:#f2f2f2;}</style></defs><g id="background"><rect class="cls-1" x="-236" y="-193" width="1591" height="1591"/></g><g id="shoe"><path class="cls-2" d="M87.13,823.16a77.31,77.31,0,0,0,12.26,13.49c20.11,17.44,44.35,19.84,56.39,20.84C245.89,865,298,859.94,298,859.94c75.4-7.34,118-11.81,172.87-33.1,30.92-12,52.32-24.15,72.33-35.55,85.71-48.83,99-82,190-142.22,41.06-27.14,79.35-48,99.3-58.84,50-27.15,95.64-61.82,144.67-90.73,12.61-7.43,33.13-19.37,35.55-39.23,1.91-15.59-7-31.33-18.39-40.46-20.09-16.07-44.33-9.25-46.59-8.58a38.24,38.24,0,0,1-1.22,12.26c-5.19,19.25-24.85,29.43-31.88,33.1-54.81,28.65-174.28,97.05-228,138.54-16.62,12.83-33.1,27-33.1,27-25.88,22.21-39.23,36.4-58.85,55.17-23,22-43.68,41.78-69.88,61.3-43.11,32.12-81.33,48.74-90.72,52.72-24.95,10.56-57.49,22.35-114,29.42C268.16,827.2,189,832.68,87.13,823.16Z"/><path class="cls-3" d="M73.64,788.84c-5.12-27.62,22.08-51,27-55.17,7.15-6.14,18.38-13.76,50.27-22.07,49.34-12.86,61.87-4.88,91.94-14.71C276.25,686,296.9,664.3,310.25,650.3,343,616,351.74,582,366.65,541.19,397.41,456.86,437.74,346.33,515,323c28.83-8.72,58.39-4,60.08-3.68,38.31,6.52,55.64,27.87,112.79,41.69,14.8,3.58,22.84,4.37,31.87,2.45,9.88-2.1,25.25-8.36,51.49-45.36a355.77,355.77,0,0,0,40.46-74.79,106.87,106.87,0,0,1,24.52,6.13c78.51,30,95.57,145.6,98.08,164.28A98.59,98.59,0,0,1,922,429.62a105.08,105.08,0,0,1-30.65,22.07c-182.81,92.92-278.3,180.22-278.3,180.22-35.49,32.44-32.69,37.62-68.65,67.43-70.19,58.19-134.14,80.57-149.57,85.82-34,11.55-60,15.72-92,20.84A721.2,721.2,0,0,1,157,814.58a702,702,0,0,1-74.79-7.36A42.39,42.39,0,0,1,73.64,788.84Z"/><path class="cls-4" d="M412,569.38q5.52-15.93,11-31.87l85.82,60.07q-28.2-60.08-56.39-120.14l17.16-35.56,93.18,78.47L505,397l33-26,83.65,200.84-23.29,19.61-91.95-77.23,50.27,118.92-23.3,27Z"/></g></svg>